<svg xmlns="http://www.w3.org/2000/svg" viewBox="225.22 318.42 1469.57 372.81" role="img" aria-label="HyperLeaf">
  <g fill="#4A5E23">
    <path d="M467.33,440.56h54.86v207.13h-54.86v-82.18h-61.77v82.18h-54.8v-82.18c-17.5,8.59-51.44,10.11-71.63,0,0,0,14.06-23.63,47.65-29.18-50.99-18.88-61.56-58.81-61.56-58.81,44.91-1.78,71.35,15.63,85.54,40.1-29.31-96.83,27.54-159.2,27.54-159.2,42.16,47.44,39.45,124.15,27.26,159.2h61.77v-77.07Z"/>
    <path d="M596.78,576.31l-62.47-135.75h58.64l15.29,43.34c5.1,15.6,10.2,29.96,15.61,46.2h1.29c5.41-16.24,10.83-30.59,16.24-46.2l15.3-43.34h57.37l-62.47,135.75v71.38h-54.8v-71.38Z"/>
    <path d="M724.25,440.56h75.83c45.25,0,84.13,16.58,84.13,68.84s-39.52,72.65-82.85,72.65h-22.32v65.64h-54.8v-207.13ZM798.8,538.72c21.66,0,31.86-10.85,31.86-29.32s-12.1-25.49-33.13-25.49h-18.49v54.81h19.76Z"/>
    <path d="M1222.66,647.69l-45.01-80.43c20.16-10.86,33.54-30.19,33.54-59.79,0-51.62-38.23-66.91-82.85-66.91h-78.38v207.13h54.8v-69.47h21.06l35.66,69.47h61.18ZM1104.76,483.91h19.76c21.67,0,33.15,5.73,33.15,23.57s-11.48,27.42-33.15,27.42h-19.76v-50.99Z"/>
    <path d="M1303.49,576.91c0-46.19,31.37-74.64,64.25-74.64,36.77,0,57.16,26.46,57.16,66.81,0,5.42-.51,10.82-1.21,14.32h-94.17c2,28.79,19.82,46.94,45.78,46.94,13.24,0,24.22-4.24,34.71-11.07l9.31,17.07c-12.73,8.39-28.37,14.89-47.34,14.89-38.2,0-68.49-27.64-68.49-74.31M1401.68,564.76c0-26.71-11.98-41.62-33.45-41.62-19.07,0-36.04,15.08-38.95,41.62h72.4Z"/>
    <path d="M1436.89,610.52c0-30.78,26.3-46.34,86.21-52.84-.16-17.48-6.23-33.78-28.38-33.78-15.81,0-30.21,7.4-41.68,14.89l-10.15-17.97c13.73-8.9,33.7-18.55,56.41-18.55,34.86,0,50.26,22.71,50.26,59.15v86.3h-21.8l-2.16-16.64h-.83c-13.32,11.14-28.79,20.13-46.19,20.13-24.04,0-41.68-15.3-41.68-40.7M1523.1,612.19v-37.46c-45.19,5.5-60.42,16.73-60.42,33.88,0,15.19,10.31,21.47,23.71,21.47s23.81-6.4,36.71-17.89"/>
    <path d="M1633.5,458.58c4.99,0,10.57,1.16,15.89,3.58l5.4-20.06c-6.4-2.65-15.14-4.91-24.2-4.91-29.79,0-43.02,19.18-43.02,48.18v20.47l-19.23,1.33v19.98h19.23v120.58h26.44v-120.58h29.46v-21.39h-29.46v-20.47c0-17.86,6.5-26.71,19.48-26.71"/>
    <path d="M897.89,440.56 L1031.72,440.56 L1031.72,486.45 L952.68,486.45 L952.68,518.96 L1020.25,518.96 L1020.25,564.85 L952.68,564.85 L952.68,601.81 L1034.89,601.81 L1034.89,647.69 L897.89,647.69 L897.89,440.56 Z"/>
    <path d="M1250.79,440.68 h26.46 v207.04 h-26.46 Z"/>
  </g>
</svg>
